<svg xmlns="http://www.w3.org/2000/svg" xmlns:xlink="http://www.w3.org/1999/xlink" viewBox="0 0 327.303 379.965">
  <defs>
    <clipPath id="clip-path">
      <path id="Clip_2" data-name="Clip 2" d="M0,0H315.121V372.966H0Z" transform="translate(0.058 0.034)" fill="none"/>
    </clipPath>
    <clipPath id="clip-path-2">
      <path id="Clip_79" data-name="Clip 79" d="M.219.219H.658V.658H.219Z" transform="translate(0.658 0.219)" fill="none"/>
    </clipPath>
    <clipPath id="clip-path-3">
      <path id="Clip_102" data-name="Clip 102" d="M0,0H260.659V181.556H0Z" transform="translate(0 0.2)" fill="none"/>
    </clipPath>
  </defs>
  <g id="Group_109" data-name="Group 109" transform="translate(-907.877 -488.157)">
    <g id="Group_3" data-name="Group 3" transform="translate(920 495)">
      <path id="Clip_2-2" data-name="Clip 2" d="M0,0H315.121V372.966H0Z" transform="translate(0.058 0.034)" fill="none"/>
      <g id="Group_3-2" data-name="Group 3" clip-path="url(#clip-path)">
        <path id="Fill_1" data-name="Fill 1" d="M298.444,230.821a16.651,16.651,0,0,0-14.162,7.9h-4.429c-2.891-12.953-13.886-25.452-26.175-29.84-1.892-4.473-4.573-12.532-7.022-16.675l21.067,1.755V155.487c17.914-8.057,29.844-22.4,29.844-38.76s-11.931-30.7-29.844-38.76V41.249H214.711C206.586,17.33,182.7,0,154.489,0s-52.1,17.33-60.223,41.249H23.7V80.215C10.773,89.3,2.633,102.482,2.633,117.166s8.14,27.871,21.067,36.951V193.96H61.606q-2.607,4.409-4.8,9.076c-11.585,8.855-19.414,23.173-21.693,37.44H24.578c-1.756-3.511-6.977-5.266-10.533-5.266a14.042,14.042,0,1,0,10.181,23.7H35.583c2.675,11.612,7.974,17.573,17.083,25.452C57.509,296.8,72.454,318.181,77.244,322.1s7.9,3.511,11.411,4.388c7.022,22.819,35.132,45.967,59.689,46.481H173.8c34.233,0,51.789-19.274,58.811-46.481,9.7-10.274,18.563-27.809,23.7-41.249,12.289-4.388,19.1-16.364,22.239-28.085h6.876c3.042,3.235,8.227,7.021,13.018,7.021a16.675,16.675,0,1,0,0-33.351" transform="translate(0.058 0.034)" fill="#56e5e5"/>
      </g>
    </g>
    <g id="Group_108" data-name="Group 108" transform="translate(907 488)">
      <path id="Fill_4" data-name="Fill 4" d="M17.442,54.242c-4.276,0-7.824-2.092-10.258-6.049-5.6-9.111-4.6-27.318,2.066-42.926H2.63A2.634,2.634,0,0,1,2.63,0H13.372a2.633,2.633,0,0,1,2.35,3.818C8.49,18.2,6.631,37.252,11.663,45.43c1.468,2.385,3.358,3.545,5.779,3.545,6.5,0,10.9-7.6,16.475-17.222C39.874,21.471,47.287,8.675,60.459.4a2.639,2.639,0,0,1,1.4-.4h8.281a2.634,2.634,0,0,1,0,5.267H62.624C50.948,12.854,44.324,24.287,38.468,34.4,32.3,45.045,26.971,54.242,17.442,54.242" transform="translate(81.592 194.046)" fill="#171628"/>
      <path id="Fill_6" data-name="Fill 6" d="M75.25,1.785A2.725,2.725,0,0,0,72.633,0H2.7A2.663,2.663,0,0,0,.036,2.141,2.686,2.686,0,0,0,2.667,5.266H72.814A2.6,2.6,0,0,0,75.25,1.785" transform="translate(99.126 31.638)" fill="#171628"/>
      <path id="Fill_8" data-name="Fill 8" d="M2.63,33.359A2.631,2.631,0,0,1,0,30.726V2.634a2.63,2.63,0,1,1,5.26,0V30.726a2.632,2.632,0,0,1-2.63,2.634" transform="translate(14.962 118.292)" fill="#171628"/>
      <path id="Fill_10" data-name="Fill 10" d="M2.63,45.712A2.631,2.631,0,0,1,0,43.078V2.634a2.63,2.63,0,1,1,5.26,0V43.078a2.632,2.632,0,0,1-2.63,2.634" transform="translate(276.222 108.573)" fill="#171628"/>
      <path id="Fill_12" data-name="Fill 12" d="M2.63,100.232A2.632,2.632,0,0,1,0,97.6V2.634A2.632,2.632,0,0,1,2.63,0H204.154a2.631,2.631,0,0,1,2.63,2.634V97.6a2.631,2.631,0,0,1-2.63,2.634Z" transform="translate(43.859 78.462)"/>
      <path id="Fill_14" data-name="Fill 14" d="M206.784,105.5H5.26A5.27,5.27,0,0,1,0,100.232V5.268A5.27,5.27,0,0,1,5.26,0H206.784a5.27,5.27,0,0,1,5.261,5.268v94.964A5.27,5.27,0,0,1,206.784,105.5ZM5.26,5.268v94.964H206.784V5.268Z" transform="translate(41.229 75.828)" fill="#171628"/>
      <path id="Fill_16" data-name="Fill 16" d="M18.471,18.078c0,9.985-4.135,18.079-9.236,18.079S0,28.063,0,18.078,4.135,0,9.235,0s9.236,8.093,9.236,18.078" transform="translate(67.046 127.854)" fill="#fcc600"/>
      <path id="Fill_18" data-name="Fill 18" d="M18.471,18.078c0,9.985-4.135,18.079-9.236,18.079S0,28.063,0,18.078,4.135,0,9.235,0s9.236,8.093,9.236,18.078" transform="translate(210.663 127.854)" fill="#fcc600"/>
      <path id="Fill_20" data-name="Fill 20" d="M18.043,62.945A45.325,45.325,0,0,1,8.019,34.319,45.28,45.28,0,0,1,17.656,5.441,37.335,37.335,0,0,1,23.044,0c-.359.129-.719.255-1.073.4a32.684,32.684,0,0,0-3.03,1.39,33.443,33.443,0,0,0-4.235,2.632,34.458,34.458,0,0,0-3.814,3.235Q9.7,8.823,8.612,10.112a35.9,35.9,0,0,0-2.984,4.1A36.565,36.565,0,0,0,3.718,17.7q-.517,1.073-.97,2.187A36.715,36.715,0,0,0,1.44,23.669C1.146,24.7.9,25.754.695,26.823c-.035.183-.07.364-.1.547A38.4,38.4,0,0,0,0,34.384c0,.162.012.323.015.486.011.455.019.909.044,1.36.016.27.044.536.065.8.025.34.046.681.081,1.018.031.3.076.6.114.9s.07.6.115.9c.048.317.11.628.166.942.048.274.09.551.146.823.065.324.143.643.217.963.058.256.11.516.174.771.081.321.174.636.263.954.068.248.132.5.205.746.1.323.207.639.313.959.077.234.148.471.231.7.115.326.243.645.366.967.085.219.163.442.251.658.131.32.273.633.411.948.093.212.181.428.277.637.146.315.3.622.457.932.1.2.2.409.3.609.16.31.333.611.5.915.108.194.21.392.321.583.174.3.36.593.543.888.116.187.227.378.346.563.188.29.384.571.579.854.125.183.245.368.373.548.2.277.405.544.609.815.134.178.265.36.4.536.209.265.427.522.644.781.143.171.281.346.427.514.219.254.448.5.674.744.152.165.3.334.452.5.229.239.465.468.7.7.161.16.319.325.484.481.233.224.476.438.716.654.173.156.343.316.518.469.239.208.487.406.733.607.184.151.364.306.551.452.248.195.5.378.756.566.192.142.38.289.576.428.253.18.514.349.772.521.2.135.4.275.6.406.256.163.518.316.779.472.215.128.426.262.644.385.258.147.522.284.784.424.227.121.451.247.679.363.262.133.53.254.8.379.235.111.469.226.707.332.267.119.538.226.807.336.245.1.486.205.732.3.269.1.541.195.814.291.124.044.248.089.373.131a37.344,37.344,0,0,1-5.564-5.448" transform="translate(206.82 216.8)" fill="#494949"/>
      <path id="Fill_22" data-name="Fill 22" d="M.816.722C.564.535.309.351.06.156c.248.195.5.379.756.566" transform="translate(220.544 279.704)" fill="#171628"/>
      <path id="Fill_24" data-name="Fill 24" d="M.547.963C.473.643.395.324.33,0,.395.324.473.643.547.963" transform="translate(207.236 258.411)" fill="#171628"/>
      <path id="Fill_26" data-name="Fill 26" d="M.667.932C.512.622.356.315.21,0c.146.315.3.622.457.932" transform="translate(210.062 266.719)" fill="#171628"/>
      <path id="Fill_28" data-name="Fill 28" d="M.825.7C.566.527.306.357.052.178.306.357.566.527.825.7" transform="translate(221.884 280.676)" fill="#171628"/>
      <path id="Fill_30" data-name="Fill 30" d="M.69.915C.52.611.348.309.187,0c.16.31.333.611.5.915" transform="translate(210.843 268.261)" fill="#171628"/>
      <path id="Fill_32" data-name="Fill 32" d="M.71.888C.527.593.341.3.167,0,.341.3.527.593.71.888" transform="translate(211.686 269.758)" fill="#171628"/>
      <path id="Fill_34" data-name="Fill 34" d="M.788.789C.554.557.318.327.089.089c.229.239.465.468.7.7" transform="translate(216.815 276.408)" fill="#171628"/>
      <path id="Fill_36" data-name="Fill 36" d="M.5.9C.458.6.412.3.381,0,.412.3.458.6.5.9" transform="translate(206.645 254.852)" fill="#171628"/>
      <path id="Fill_38" data-name="Fill 38" d="M.743.846C.539.576.331.308.134.032c.2.277.405.544.609.815" transform="translate(213.56 272.578)" fill="#171628"/>
      <path id="Fill_40" data-name="Fill 40" d="M.521.941C.466.628.4.316.356,0,.4.316.466.628.521.941" transform="translate(206.899 256.646)" fill="#171628"/>
      <path id="Fill_42" data-name="Fill 42" d="M.47.841C.45.573.421.307.406.036.421.307.45.573.47.841" transform="translate(206.474 252.993)" fill="#171628"/>
      <path id="Fill_44" data-name="Fill 44" d="M.57.954C.48.636.388.321.307,0,.388.321.48.636.57.954" transform="translate(207.649 260.145)" fill="#171628"/>
      <path id="Fill_46" data-name="Fill 46" d="M.734,0A38.478,38.478,0,0,0,.143,7.014c0,.162.012.323.016.485,0-.162-.014-.323-.016-.485A38.478,38.478,0,0,1,.734,0" transform="translate(206.678 244.169)" fill="#171628"/>
      <path id="Fill_48" data-name="Fill 48" d="M.76.83C.544.571.325.314.117.048.325.314.544.571.76.83" transform="translate(214.591 273.912)" fill="#171628"/>
      <path id="Fill_50" data-name="Fill 50" d="M.066,3.154C.272,2.086.517,1.032.811,0,.517,1.032.272,2.086.066,3.154" transform="translate(207.449 240.468)" fill="#171628"/>
      <path id="Fill_52" data-name="Fill 52" d="M.8.742C.559.541.312.343.072.136.312.343.559.541.8.742" transform="translate(219.249 278.665)" fill="#171628"/>
      <path id="Fill_54" data-name="Fill 54" d="M0,2.187Q.452,1.073.97,0,.453,1.073,0,2.187" transform="translate(209.568 234.495)" fill="#171628"/>
      <path id="Fill_56" data-name="Fill 56" d="M.8.766C.557.549.313.336.08.112.313.336.557.549.8.766" transform="translate(218.006 277.566)" fill="#171628"/>
      <path id="Fill_58" data-name="Fill 58" d="M.728.866C.533.582.337.3.149.012.337.3.533.582.728.866" transform="translate(212.593 271.196)" fill="#171628"/>
      <path id="Fill_60" data-name="Fill 60" d="M.845.584C.572.489.3.4.032.294.3.4.572.489.845.584" transform="translate(229.209 284.478)" fill="#171628"/>
      <path id="Fill_62" data-name="Fill 62" d="M.836.629C.57.5.3.382.041.249.3.382.57.5.836.629" transform="translate(226.159 283.175)" fill="#171628"/>
      <path id="Fill_64" data-name="Fill 64" d="M.842.607C.572.5.3.389.035.271.3.389.572.5.842.607" transform="translate(227.667 283.865)" fill="#171628"/>
      <path id="Fill_66" data-name="Fill 66" d="M.83.651C.568.511.3.374.046.227.3.374.568.511.83.651" transform="translate(224.69 282.411)" fill="#171628"/>
      <path id="Fill_68" data-name="Fill 68" d="M.621.967C.5.646.37.327.256,0,.37.327.5.646.621.967" transform="translate(208.712 263.508)" fill="#171628"/>
      <path id="Fill_70" data-name="Fill 70" d="M.595.959C.489.639.379.322.282,0c.1.322.207.639.313.959" transform="translate(208.143 261.846)" fill="#171628"/>
      <path id="Fill_72" data-name="Fill 72" d="M.776.812C.55.565.32.32.1.066.32.32.55.565.776.812" transform="translate(215.676 275.189)" fill="#171628"/>
      <path id="Fill_74" data-name="Fill 74" d="M.644.948C.505.633.363.32.233,0,.363.32.505.633.644.948" transform="translate(209.351 265.133)" fill="#171628"/>
      <path id="Fill_76" data-name="Fill 76" d="M.828.675C.567.519.305.366.049.2.305.366.567.519.828.675" transform="translate(223.264 281.578)" fill="#171628"/>
      <g id="Group_80" data-name="Group 80" transform="translate(0 379.244)">
        <path id="Clip_79-2" data-name="Clip 79" d="M.219.219H.658V.658H.219Z" transform="translate(0.658 0.219)" fill="none"/>
      </g>
      <path id="Fill_81" data-name="Fill 81" d="M.328.154C.4.345.477.533.548.724.477.533.4.345.328.154" transform="translate(254.116 214.164)" fill="#171628"/>
      <path id="Fill_83" data-name="Fill 83" d="M.33.208C.4.363.477.515.547.67.477.515.4.363.33.208" transform="translate(251.19 207.198)" fill="#171628"/>
      <path id="Fill_85" data-name="Fill 85" d="M.331.248C.4.376.476.5.546.63.476.5.4.376.331.248" transform="translate(247.779 200.49)" fill="#171628"/>
      <path id="Fill_87" data-name="Fill 87" d="M.333.242C.4.374.474.5.544.636.474.5.4.374.333.242" transform="translate(248.971 202.7)" fill="#171628"/>
      <path id="Fill_89" data-name="Fill 89" d="M.327.189C.4.356.477.521.55.689.477.521.4.356.327.189" transform="translate(252.22 209.49)" fill="#171628"/>
      <path id="Fill_91" data-name="Fill 91" d="M.331.225C.4.368.475.51.546.653.475.51.4.368.331.225" transform="translate(250.107 204.934)" fill="#171628"/>
      <path id="Fill_93" data-name="Fill 93" d="M.329.176C.4.352.476.526.548.7.476.526.4.352.329.176" transform="translate(253.197 211.817)" fill="#171628"/>
      <path id="Fill_95" data-name="Fill 95" d="M54.356,134.159C24.383,134.159,0,102.654,0,63.929,0,36.86,12.228,11.917,31.15.385L31.781,0H56.11a2.634,2.634,0,0,1,0,5.267H33.267C16.23,16.034,5.26,38.959,5.26,63.929c0,35.821,22.024,64.963,49.1,64.963a2.634,2.634,0,0,1,0,5.267" transform="translate(164.003 194.046)" fill="#171628"/>
      <path id="Fill_97" data-name="Fill 97" d="M45.759.55q-2.178.042-4.312.1c-.774.021-1.556.04-2.322.063-3.641.115-7.189.259-10.67.4-6.275.258-12.2.5-17.525.5-2.406,0-4.811-.048-7.172-.183Q2.07,1.34.42,1.175C.281.783.131.4,0,0,.131.4.281.783.42,1.175l.06.169c.167.466.324.936.5,1.4s.37.891.556,1.336.362.9.558,1.34.419.882.629,1.323.4.864.615,1.288.463.86.693,1.29.441.839.677,1.25.5.834.753,1.25.482.816.737,1.216.541.808.813,1.211.521.791.794,1.176.581.783.872,1.173.558.763.85,1.134.619.755.929,1.132.593.733.9,1.09.656.727.985,1.089.626.7.95,1.043.691.7,1.036,1.042.661.673,1,1,.72.659,1.081.988.7.645,1.056.957.751.625,1.127.936.729.614,1.1.909.78.589,1.17.882.761.581,1.152.859.806.551,1.211.826.792.547,1.2.809.832.514,1.25.769.82.512,1.24.755.857.474,1.285.71.851.476,1.285.7.875.433,1.314.647.882.439,1.331.645.9.39,1.344.584c.256.111.508.226.766.333a59.478,59.478,0,0,0,26.788,6.1l17.919-.145a41.523,41.523,0,0,1-9.2-4.854C58.782,29.9,50.147,16.691,45.759.55" transform="translate(95.139 331.959)" fill="#494949"/>
      <path id="Fill_99" data-name="Fill 99" d="M87.194,7.3C75.731,16.64,62.55,22.181,48.572,23.295c-.8.063-1.61.1-2.407.1-13.385,0-23.339-8.736-31.336-15.755C10.75,4.057,6.128,0,3.718,0,2.747.008,1.8.025.844.041.564.046.278.048,0,.054,4.388,16.194,13.022,29.408,24,37.039a41.49,41.49,0,0,0,9.2,4.855l5.6-.046,4.773-.039a42,42,0,0,0,12.43-1.987,43.269,43.269,0,0,0,4.662-1.786q1.14-.512,2.252-1.09a46.618,46.618,0,0,0,4.334-2.557,52.665,52.665,0,0,0,13.024-12.5q1.59-2.14,3.007-4.461.709-1.159,1.369-2.359a63.972,63.972,0,0,0,3.534-7.55c.155-.4.3-.8.441-1.2Z" transform="translate(140.899 332.456)" fill="#353535"/>
      <g id="Group_103" data-name="Group 103" transform="translate(0.877 196.645)">
        <path id="Clip_102-2" data-name="Clip 102" d="M0,0H260.659V181.556H0Z" transform="translate(0 0.2)" fill="none"/>
        <g id="Group_103-2" data-name="Group 103" clip-path="url(#clip-path-3)">
          <path id="Fill_101" data-name="Fill 101" d="M152.69,181.556a67.5,67.5,0,0,1-46.969-18.692,65.112,65.112,0,0,1-10.379-12.809A62.873,62.873,0,0,1,88.7,135.339c-5.012-1.132-8.785-3-11.533-5.707a97.054,97.054,0,0,1-22-33.457c-.3-.739-.588-1.5-.895-2.321a50.984,50.984,0,0,1-13.2-14.989,50.448,50.448,0,0,1-5.086-12.3H26.192a15.425,15.425,0,1,1,.814-21.088h7.882a50.371,50.371,0,0,1,7.235-19.229,51.006,51.006,0,0,1,13.929-14.6A108.836,108.836,0,0,1,61.853,0L67.2,1.339A103.936,103.936,0,0,0,52.6,55.4a107.77,107.77,0,0,0,5.765,34.271c.523,1.522,1.092,3.053,1.689,4.549s1.236,2.992,1.9,4.439c.319.7.664,1.431,1.025,2.173,1.044,2.142,2.184,4.273,3.386,6.333a92.158,92.158,0,0,0,6.026,9.037c.4.526.822,1.076,1.266,1.636a88.068,88.068,0,0,0,7.2,8.038c.272.269.57.534.885.788.062.05.129.1.195.145.049.035.1.07.144.1l.118.09.008.006c.163.124.331.251.508.369.091.061.189.119.282.174l.16.1.127.079c.159.1.322.2.492.295.107.059.221.115.331.17l.18.09.123.063.019.01c.159.082.324.167.493.246.117.054.241.1.36.154l.21.087.168.071c.159.068.324.138.493.2.137.052.282.1.421.149l.2.068.177.063c.093.033.184.066.278.1l.091.029.148.047c.166.052.34.1.508.148l.158.044.14.04c.192.055.388.112.588.163.16.041.327.08.488.117l.014,0,.211.049.118.027c.209.049.425.1.643.145s.421.083.629.122h.007l.117.022.207.039.022,0c.185.035.375.07.568.1.211.034.436.068.634.1l.156.023.127.02.016,0,.226.035.252.034.216.029c.227.03.464.058.693.084l.137.016.111.013c.234.027.5.058.759.084s.545.052.865.079l.158.015h.006l.293.027.428.031.026,0c.292.022.593.041.884.06h.007c.379.025.673.043.952.058s.578.027.929.041c.3.013.649.029.987.039.313.011.632.019.94.027h.011c.317.008.677.016,1.032.022s.684.01.98.013c.408,0,.746.006,1.067.007h.424l.415,0h.214c.32,0,.652,0,.98-.005l.8-.009h.008l.283,0,1.015-.016c.291,0,.585-.011.881-.017l.254-.005.365-.008h.022l.644-.015.741-.02.431-.012.9-.027.152,0,1.2-.04.542-.019.066,0,.468-.016.48-.018h.048l.758-.029c.344-.013.688-.025,1.037-.04l.964-.037h.026l.37-.015,1.1-.044,1-.041h.016l.628-.026,1.65-.068.814-.034.61-.025.337-.013h.028l.946-.037.662-.026h.022l.577-.023,1.289-.048h.046c.417-.017.832-.033,1.253-.048l.7-.024.611-.021h.04c.163-.006.324-.012.487-.016l.252-.009.524-.018c.469-.015.943-.029,1.416-.042l.256-.008.128,0,.846-.025c.47-.013.971-.025,1.575-.039h.039l1.079-.028,1.633-.031.131,0,.469-.008h.006l.493-.009c.878-.014,1.781-.025,2.761-.033h.032c.223,0,.452.022.673.043l.031,0c.041,0,.082.006.123.007.057,0,.116.005.174.013a8.717,8.717,0,0,1,1.007.2c.058.015.117.035.174.054s.1.032.142.046l.069.02c.209.061.424.124.639.2.1.036.2.079.291.12l.16.068.117.048c.155.063.313.127.47.2.116.054.236.117.351.177l.154.08.112.057c.143.072.29.147.438.229.125.069.252.146.375.22l.163.1.144.086c.126.075.257.153.388.236s.279.182.415.273l.152.1.149.1c.123.082.248.165.372.253.173.12.349.249.519.374l.075.055.022.016c.161.116.327.236.492.361.192.145.4.308.626.483l.182.142c.1.081.21.163.315.248.22.175.444.358.661.535l0,0,.184.151.013.01.285.233c.257.214.491.411.715.6.155.13.3.252.443.375.249.212.516.443.818.7l.065.057.014.012.26.226c.571.5,1.137.993,1.736,1.519l.008.007.96.841.06.052.121.1c.348.3.677.591,1.007.877l.219.19.181.156.017.015.863.737.2.166,0,0,.282.237c.281.237.567.473.835.694.158.132.328.272.535.439.25.2.517.418.817.656.189.151.381.3.573.453.278.218.566.438.814.626l.055.042c.183.138.363.274.544.409.244.18.512.376.821.6.208.149.416.3.624.446.232.162.47.323.7.479l.127.086.078.053c.188.127.38.256.57.379.267.174.54.345.8.51l.038.024.049.03c.2.125.408.255.615.38.278.166.554.323.86.5.223.128.453.261.683.386.267.145.542.286.808.421l.07.036.213.109c.158.082.322.166.487.246.284.137.577.268.859.394l.042.019.195.088.008,0c.166.076.339.154.511.227.261.11.531.214.792.314l.139.053.223.087c.162.064.328.13.5.189.268.1.544.183.811.267l.165.052.227.074c.16.053.325.107.489.155.3.086.606.161.9.233l.139.034.227.059.007,0c.149.039.3.079.457.113.312.068.634.124.946.178l.218.038.239.044c.123.024.246.047.368.066.492.072,1.021.131,1.616.179.031,0,.062.007.093.011s.071.009.107.012c.6.045,1.215.068,1.83.068h.027c.631,0,1.275-.027,1.914-.077h.049a62.182,62.182,0,0,0,26.577-8.428c1.7-.995,3.4-2.083,5.029-3.235,1.615-1.139,3.222-2.375,4.775-3.672,1.016-.848,2.039-1.749,3.039-2.677,1.187-1.1,4.184-4.168,4.336-4.332.926-1,1.847-2.034,2.738-3.088,1.025-1.212,2.08-2.533,3.134-3.927l.185-.244,0,0c.182-.239.37-.487.552-.733A110.156,110.156,0,0,0,254.608,91.3l6.052-1.861a125.12,125.12,0,0,1-6.461,17.48,112.759,112.759,0,0,1-8.867,15.894,97.914,97.914,0,0,1-9.274,11.776,69.01,69.01,0,0,1-5.33,14.488,64.444,64.444,0,0,1-8.382,12.7c-10.585,12.488-24.823,19.431-40.091,19.55l-29.014.227ZM94.684,136.289c.02.057.04.113.061.17.052.146.1.292.156.443.1.292.223.634.346.953.111.285.228.563.38.919l.008.019q.085.2.168.4l.034.083.032.077c.02.049.039.1.058.144l.046.111.013.032c.123.3.244.6.374.894s.286.614.4.851l.005.011q.112.229.221.461t.216.457l.037.078,0,.008c.107.228.232.492.359.743.14.274.286.541.448.837l.069.127,0,.008.005.009,0,.01.046.084c.04.073.078.143.116.214.065.121.13.242.2.372l.038.07,0,.005c.132.251.283.535.438.8.165.288.332.562.518.863l.008.014.087.143.007.013c.045.072.089.145.133.218l.109.183.11.183c.182.306.346.581.518.85s.336.511.514.771l.048.07.005.008.246.362c.055.08.108.16.163.243l.026.039.07.106.006.008.013.02c.147.223.331.5.515.762s.4.551.588.794l.011.015.274.364.251.338.011.015.006.009c.2.268.384.52.581.772s.392.485.554.68l.048.058.057.068.006.008.011.013c.085.1.169.2.253.3l.062.076.075.091.013.016.017.021.1.123c.2.247.416.51.635.763s.476.534.69.767l.01.011.1.107.187.2.084.094.084.093.1.108.043.049.078.086.049.054c.168.186.341.378.516.561.2.2.4.407.594.6l.047.047.047.046.04.04.308.305.291.293c.225.229.468.473.712.706s.494.458.715.655l0,0,.014.014.12.109.228.206.007.006.144.132.187.171.031.029.029.027c.2.185.432.4.658.592.245.213.5.422.784.653l.005,0,.014.012.325.266.294.246.008.007c.246.206.521.437.8.657.252.2.508.388.749.566l.026.02,0,0,.093.069.3.223.342.258.011.008.01.007.024.019.085.064c.221.167.449.339.68.5.262.187.539.375.874.6l.011.007.326.22.006,0,.17.116.034.023.13.089c.256.177.558.383.858.576s.588.368.852.528l.057.034.005,0,.006,0,.015.009.153.093.161.1.306.189.021.013.014.008.013.009.059.037.061.037c.249.153.506.311.765.462.275.159.556.312.828.46l0,0,.061.033q.2.105.392.213l.02.011.028.016.364.2.031.017c.271.15.551.3.841.455.32.166.659.33.952.471l.157.075.078.038.118.058.01,0,.014.007.01,0,.1.051.207.1.026.013c.39.193.674.332.969.468.313.143.638.282.925.4l.151.065.268.115.3.131.005,0c.136.06.3.131.46.2a59.461,59.461,0,0,0,26.294,6.1l.494,0,.765-.006,2.384-.019,3.272-.026.4,0,11.1-.089c2.019-.017,3.938-.033,5.6-.046l3.636-.03h.036l1.1-.009a42.043,42.043,0,0,0,12.43-1.987,43.086,43.086,0,0,0,4.663-1.786c.726-.325,1.484-.692,2.253-1.09A46.777,46.777,0,0,0,207.276,170,52.52,52.52,0,0,0,220.3,157.5c1.046-1.407,2.057-2.908,3.006-4.461.458-.747.92-1.541,1.371-2.359a64.164,64.164,0,0,0,3.533-7.549c.115-.294.223-.6.328-.887l.008-.022.008-.023.008-.023.089-.247-1.436.982A70.016,70.016,0,0,1,188.6,158.9c-.8.064-1.611.1-2.408.1-13.381,0-23.335-8.734-31.333-15.752l0,0-.011-.009c-4.074-3.575-8.69-7.627-11.1-7.627-.9.007-1.8.023-2.475.035l-.122,0h-.011l-.267,0-.344,0-.166,0-.111,0h-.006l-.218,0c-1.549.03-3,.063-4.311.1l-.6.016-.123,0h-.013c-.463.012-1.039.026-1.582.044-3.631.115-7.119.257-10.67.4l-.065,0c-6.232.256-12.119.5-17.46.5-2.7,0-5.043-.06-7.173-.183C96.863,136.484,95.74,136.4,94.684,136.289ZM52.364,21.63a45.993,45.993,0,0,0-4.016,4.739,45.423,45.423,0,0,0-7.985,18.178c-.035.18-.066.367-.095.547l0,.01v.008l0,.012v.014c-.019.113-.037.225-.057.336-.227,1.3-.39,2.481-.5,3.612-.011.122-.019.253-.026.368l0,.069v.013l0,.024v.009c-.005.1-.012.2-.019.306-.107,1.391-.155,2.66-.145,3.88.006.779.033,1.568.078,2.344.006.095.014.194.024.3l0,.022v.012c.008.082.015.164.022.247l0,.049,0,.034c.037.511.079,1.09.139,1.648.015.139.035.282.054.408l0,.014,0,.027,0,.019,0,.021c.014.094.027.187.039.282l0,.017.017.126c.005.047.012.094.018.142l0,.029.008.062.008.062c.045.352.092.713.149,1.069.019.123.043.249.067.377l0,.024.012.06,0,.009.014.068c.016.085.032.17.048.256q.062.34.127.682l0,.012c.019.1.037.192.055.292l0,.025c.034.187.058.317.082.436.021.1.045.2.07.3v0l.019.08.014.055.008.034c.025.1.05.2.074.3l.056.243.007.032c.09.392.178.774.277,1.15.044.161.093.328.136.47l.024.081.018.06c.014.045.027.091.04.137l.01.034c.067.239.129.452.19.651.029.1.057.193.085.292l.01.036c.036.127.075.263.117.4s.086.256.123.363l.019.055.008.022,0,.005c.04.114.078.222.114.329l.049.147.05.147c.13.388.243.714.366,1.046.04.108.083.214.125.317l.021.052.029.07.009.022.024.059.01.023.03.074.052.13.1.247c.135.345.28.714.432,1.069.052.119.108.24.163.357l.006.012.024.053.022.049c.041.086.08.172.119.258l0,.01.051.112,0,.006.09.2c.138.306.286.632.445.957.062.129.129.256.2.385l.012.023.011.02.026.049.031.059c.03.055.059.112.088.168l.143.281.05.1.024.048c.126.243.281.544.436.826.074.135.156.273.235.406l0,.007.053.091c.036.06.071.121.106.182l.126.221.016.028c.19.33.376.653.568.966.078.123.165.257.258.4l.026.04.149.23.136.212c.18.282.4.632.628.959.073.107.153.217.217.306l.041.057.027.037c.062.085.124.17.185.256l.109.154.044.063.024.034.025.035c.2.277.4.563.609.836.09.121.187.242.281.359l.031.038c.064.078.127.158.19.238l.01.013.04.051.122.155.06.076.032.041.063.079c.173.219.352.445.534.662.079.1.161.189.239.275l.042.049.047.053,0,0,.012.013.007.008.064.073.124.141,0,0c.067.077.134.154.2.23l.168.192.012.013.008.009.012.013a114.666,114.666,0,0,1-3.726-28.3A109.711,109.711,0,0,1,52.364,21.63ZM15.4,45.485a10.04,10.04,0,0,0-3,.454c-.3.093-.615.207-.927.338a10.023,10.023,0,0,0-1.712.931,10.1,10.1,0,0,0,0,16.744,10.044,10.044,0,0,0,1.712.932c.311.131.623.245.927.338a10.114,10.114,0,0,0,6,0c.316-.1.627-.212.926-.338a10.1,10.1,0,0,0,1.713-.932c.064-.043.126-.092.187-.139l.016-.013.034-.026.1-.078.042-.03.075-.054.016-.012c.1-.073.2-.148.3-.229A10.184,10.184,0,0,0,23.18,62a10.095,10.095,0,0,0,0-12.843,10.285,10.285,0,0,0-1.367-1.369c-.018-.014-.037-.028-.056-.042l-.008-.006-.017-.013-.044-.033c-.2-.161-.42-.331-.651-.488a10.144,10.144,0,0,0-1.713-.931c-.312-.131-.623-.245-.926-.338A10.04,10.04,0,0,0,15.4,45.485Zm14.294,4.389a15.264,15.264,0,0,1-.39,12.29h5.721a51.869,51.869,0,0,1-.761-8.367c-.01-1.19.034-2.473.134-3.923Z" transform="translate(-0.001 0.2)" fill="#171628"/>
        </g>
      </g>
      <path id="Fill_104" data-name="Fill 104" d="M265.546,199.156H26.2a5.27,5.27,0,0,1-5.26-5.267v-35.03a50.334,50.334,0,0,1-8.622-7.491,48.108,48.108,0,0,1-6.6-9.174,45.945,45.945,0,0,1-4.227-10.52,45.373,45.373,0,0,1,0-23.057A45.943,45.943,0,0,1,5.716,98.1a48.107,48.107,0,0,1,6.6-9.174,50.336,50.336,0,0,1,8.622-7.49V46.4a5.27,5.27,0,0,1,5.26-5.268H93.147c2.467-10.041,8.455-19.172,17.316-26.4C122.1,5.233,137.511,0,153.845,0s31.743,5.233,43.384,14.734c8.86,7.232,14.848,16.362,17.316,26.4h51a5.27,5.27,0,0,1,5.26,5.268V82.241a48.744,48.744,0,0,1,20.167,15.351,36.652,36.652,0,0,1,0,45.108,48.747,48.747,0,0,1-20.167,15.352v35.836A5.269,5.269,0,0,1,265.546,199.156ZM26.2,46.4V193.889H265.546V46.4Zm244.6,41.423v65.344a47.507,47.507,0,0,0,5.833-3.236,43.175,43.175,0,0,0,7.16-5.824,37.672,37.672,0,0,0,5.463-7,33.3,33.3,0,0,0,3.484-7.946,31.33,31.33,0,0,0,1.224-8.665,31.7,31.7,0,0,0-3.916-15.224,38.6,38.6,0,0,0-10.62-12.236c-.344-.262-.636-.48-.92-.687A47.078,47.078,0,0,0,270.806,87.827Zm-249.863.318A43.4,43.4,0,0,0,10.6,100.127,41.244,41.244,0,0,0,7.856,105.8a40.331,40.331,0,0,0,0,29.392,41.313,41.313,0,0,0,2.744,5.677,42.776,42.776,0,0,0,4.548,6.371,44.57,44.57,0,0,0,5.793,5.61ZM153.481,5.937a71.412,71.412,0,0,0-8.752.539,68.621,68.621,0,0,0-8.336,1.567c-1.795.455-3.572.985-5.28,1.576s-3.386,1.247-5.024,1.972c-.81.359-1.62.738-2.407,1.128-1.592.79-3.135,1.639-4.584,2.524-.719.438-1.449.906-2.172,1.391a54.955,54.955,0,0,0-5.983,4.651,48.456,48.456,0,0,0-7.993,9.168c-.144.216-.283.443-.406.642l-.045.073-.072.116-.123.2c-.025.035-2.463,3.535-2.884,5.387-.32.721-.588,1.369-.822,1.981-.354.929-.685,1.934-1.041,3.164H209.406a43.155,43.155,0,0,0-9.874-17.261,53.109,53.109,0,0,0-9.5-8.121c-1.425-.958-2.913-1.865-4.424-2.7-.764-.42-1.548-.83-2.331-1.219a63.172,63.172,0,0,0-7.43-3.1c-.855-.294-1.732-.577-2.609-.84-1.755-.524-3.571-.985-5.4-1.368A70.07,70.07,0,0,0,153.481,5.937Z" transform="translate(2.786 0.157)" fill="#171628"/>
      <path id="Fill_106" data-name="Fill 106" d="M39.187,94.622A37.951,37.951,0,0,1,11.5,82.545,42.18,42.18,0,0,1,0,53.679,42.161,42.161,0,0,1,11.129,24.522,39.19,39.19,0,0,1,23.745,15.34,36.368,36.368,0,0,1,38.827,12.1c2.491,0,9.156-.073,9.222-.074.92,0,1.889.051,2.96.157L51,12.158l-.011-.027c-.253-.578-.524-1.195-.809-1.811-.041-.089-.083-.178-.125-.267l0,0c-.03-.063-.06-.126-.09-.19-.254-.545-.556-1.187-.866-1.82-.04-.08-.081-.16-.121-.24l-.007-.014-.089-.174c-.357-.719-.65-1.3-.923-1.823l-.089-.167,0-.005c-.04-.074-.079-.147-.118-.221-.309-.585-.642-1.21-.981-1.822-.043-.079-.088-.159-.133-.238l-.082-.144c-.279-.5-.649-1.158-1.028-1.805-.036-.062-.073-.123-.11-.184l-.006-.009-.09-.151L50.829,0a108.335,108.335,0,0,1,6.434,13.48,31.917,31.917,0,0,1,8.416,4.171,36.58,36.58,0,0,1,7.292,6.729A42.489,42.489,0,0,1,80.6,38.317c.4,1.223.761,2.485,1.064,3.75,0,.006,0,.012,0,.018s0,.014,0,.019h2.759l.016-.021.011-.016a18.841,18.841,0,0,1,6.357-5.218A18.248,18.248,0,0,1,99.075,34.9a18.583,18.583,0,0,1,0,37.166,18.247,18.247,0,0,1-8.258-1.952,18.84,18.84,0,0,1-6.357-5.218l-.05,0c-1.069.028-1.694.034-2.03.034a3.359,3.359,0,0,1-.765-.036,44.646,44.646,0,0,1-4.73,11.793,39.326,39.326,0,0,1-7.509,9.367,33.364,33.364,0,0,1-9.675,6.2,29.85,29.85,0,0,1-11.229,2.295l-9.284.075ZM47.848,17.3c-.591.005-1.233.039-1.963.1l-.031,0-.014,0-.292.03c-.651.066-1.285.154-1.882.262-.663.119-1.244.243-1.778.38a25.718,25.718,0,0,0-4.2,1.487,27.405,27.405,0,0,0-2.644,1.387,28.769,28.769,0,0,0-3.7,2.628A35.373,35.373,0,0,0,20.751,39.5c-.367,1.085-.692,2.2-.967,3.315s-.514,2.29-.7,3.456a43.987,43.987,0,0,0-.542,7.258c0,.6.023,1.226.054,1.849,0,.1.012.212.022.331.006.084.013.163.017.243l.016.251,0,.061,0,.067c.018.286.037.582.064.871.009.1.021.2.032.3l.01.083q.018.139.032.278l0,.043.009.086V58l.012.111,0,.024,0,.021c.029.278.059.565.1.845.018.134.04.27.059.385l.012.076c.014.089.029.179.043.273.008.059.017.118.026.177l.011.072c.042.282.08.536.123.784.028.16.06.316.094.476l0,.014,0,.007c.017.085.035.17.052.256l.039.2c.043.229.1.512.156.779.04.187.086.373.13.547l.03.119c.007.031.015.064.023.1s.021.086.031.13.02.086.031.13l0,.013,0,.01c.055.235.1.447.16.659.039.145.082.3.132.463l.039.134.037.128q.032.112.062.222l.006.022c.063.226.13.466.2.7.047.152.1.3.143.435l.011.032.04.116.039.116.019.057c.018.057.036.112.055.169.076.236.151.468.235.7.054.153.112.3.162.43l.032.085.024.062c.015.038.028.072.041.107l.02.054.029.077.01.026c.012.033.024.066.037.1.08.213.162.433.248.648.059.147.125.3.178.418l0,.006c.036.083.072.166.107.248l.048.112.03.07.058.134c.069.164.151.359.24.554.063.138.13.274.194.407l0,.007.12.247.029.062c.021.044.04.084.06.125l.01.021c.09.191.195.413.306.632.068.133.132.252.205.385l.043.08c.03.053.059.107.09.167l.049.092.065.121.009.017.023.043c.1.181.195.368.3.547.065.117.134.231.2.341l.029.048.014.023c.038.061.076.123.112.186l.051.086,0,.009.056.095.005.01c.113.194.234.4.361.6.075.119.152.236.212.326l.017.026c.052.078.1.156.154.234l.086.132,0,.005.049.076.03.046c.1.158.219.337.336.5.083.121.172.242.25.349l.022.03.05.069.026.036.06.082.064.089.006.009.035.048.035.048,0,.006c.152.215.275.383.387.531.089.117.183.234.246.312l.025.032.005.007,0,.006c.05.061.1.123.149.186l.119.151.011.014.055.069c.12.153.245.311.371.462.08.1.171.2.278.32l.008.009c.057.065.114.13.17.2l.166.191.036.042c.126.146.25.288.377.426.095.1.2.209.3.31l0,0,.177.183.074.077.073.076.009.01.028.029c.127.134.272.286.418.431.106.1.22.212.313.3l.009.008.18.169,0,0,.088.083.089.085.05.048c.131.125.259.247.391.365.088.079.179.157.268.232l.052.045.023.019c.062.052.124.1.185.158l.142.122.038.033.031.026.035.03c.129.11.259.222.389.328.092.076.188.15.282.221l.06.046.028.022.152.116.033.026.171.133.009.006c.141.111.308.24.47.359.111.081.225.159.351.245l0,0c.074.049.148.1.221.151l.15.1.062.043.005,0,.024.017c.139.1.282.2.424.289s.261.165.379.236l.213.131.005,0,.079.049.078.049.019.012c.161.1.333.207.5.307.133.077.265.148.411.226l.04.022.084.044.084.045.094.051.093.051c.181.1.344.189.508.272.138.07.284.138.414.2l.035.016.1.046.1.046.1.048.1.047c.139.067.321.155.5.235.155.068.312.131.464.192l.006,0,.191.076.1.04.094.039.011,0,.013.005.061.025c.143.058.291.119.439.174s.317.112.472.164l.008,0,.2.067.04.013.159.055c.185.065.352.122.527.175.135.042.274.08.409.117l.033.009.056.015.2.053.046.013.059.016.025.007.079.022.022.006c.161.046.335.094.507.137.145.035.295.067.439.1l.02,0,.25.052.238.051.046.01c.152.033.308.066.462.095l.221.036.192.03.1.015.1.014L44.56,89l.093.014h.008l.088.013.049.008c.16.025.339.053.509.073s.348.035.509.048l.111.009.11.01.105.012h.01l.116.014.07,0,.035,0,.032,0,.129.01.031,0,.023,0,.077.006.143.01c.188.01.38.014.56.018l.094,0,.094,0,.242.009.043,0,.045,0c.111,0,.226.008.341.008h.2a25.1,25.1,0,0,0,12.8-3.653c.426-.254.842-.517,1.272-.805s.835-.577,1.232-.876a30.156,30.156,0,0,0,2.345-1.959c.758-.7,1.489-1.447,2.174-2.218s1.363-1.606,1.988-2.458a36,36,0,0,0,2.6-4.1,38.647,38.647,0,0,0,2.1-4.537c.2-.523.4-1.061.58-1.6.078-.233.28-1.009.568-2.185H60.6a14.923,14.923,0,1,1,0-22.825H76.238c-.024-.087-.05-.173-.075-.257l0-.005-.025-.087L76.1,41.6l-.018-.062-.02-.073c-.011-.039-.022-.077-.032-.115-.059-.21-.12-.426-.186-.641-.041-.132-.085-.264-.128-.391L75.7,40.27l-.01-.031-.053-.156,0-.008-.027-.082-.089-.273-.033-.1-.032-.1c-.048-.145-.1-.294-.15-.44-.032-.09-.067-.183-.1-.265l-.032-.084-.031-.079-.035-.091-.019-.049-.038-.1L75,38.26l-.036-.1-.027-.073c-.074-.2-.15-.4-.229-.6-.046-.112-.1-.228-.141-.331l-.01-.024-.021-.048c-.036-.082-.071-.163-.106-.245l0-.006-.074-.175c-.1-.232-.2-.479-.31-.716-.047-.1-.1-.2-.145-.3l-.028-.058-.038-.077,0-.005-.046-.094-.046-.094-.087-.184-.009-.018-.021-.044c-.1-.2-.2-.417-.3-.62-.052-.1-.1-.2-.163-.308l-.038-.069-.125-.231-.065-.124-.057-.108c-.1-.19-.214-.405-.333-.613-.072-.129-.146-.253-.216-.367l-.04-.067-.028-.047-.056-.094-.071-.121-.012-.02-.025-.043c-.125-.214-.254-.432-.386-.643-.072-.115-.146-.229-.237-.365l-.047-.071-.078-.119-.055-.084-.059-.091-.023-.036c-.124-.191-.255-.393-.387-.586-.048-.069-.1-.138-.146-.205l-.057-.079-.031-.041-.042-.059-.1-.139-.04-.056-.069-.1,0,0-.048-.067-.034-.049-.047-.065c-.1-.145-.212-.295-.32-.438-.073-.1-.16-.2-.256-.324l-.005-.006-.13-.162L69.4,28.34c-.159-.2-.331-.424-.509-.638-.081-.1-.164-.192-.242-.28l-.018-.021,0,0-.054-.062-.1-.112-.115-.133-.026-.03c-.162-.188-.316-.365-.476-.54-.08-.087-.164-.174-.245-.258l-.048-.05c-.049-.05-.1-.1-.147-.151l-.071-.075-.073-.076-.015-.016c-.16-.169-.318-.335-.481-.5-.107-.105-.216-.207-.289-.274l0,0-.162-.151-.07-.067-.014-.013-.013-.012c-.187-.179-.38-.364-.573-.538l-.007-.007-.008-.006a.245.245,0,0,0-.023-.021c-.063-.057-.127-.111-.19-.164l-.018-.015-.044-.038c-.062-.051-.123-.1-.185-.156l-.14-.122L65,23.781c-.166-.143-.342-.3-.518-.437-.075-.061-.153-.121-.229-.179l-.021-.016-.048-.036c-.067-.05-.134-.1-.2-.154l-.154-.121-.066-.051-.023-.018c-.151-.117-.307-.237-.463-.352-.1-.07-.2-.139-.3-.211l-.052-.036-.007,0-.081-.056-.081-.055-.155-.108c-.181-.129-.375-.265-.563-.387-.106-.069-.221-.139-.313-.194l-.024-.014-.006,0-.2-.126-.062-.038-.1-.062,0,0-.018-.011c-.159-.1-.356-.223-.546-.333l-.021-.013-.021-.013-.011-.007c-.091-.053-.195-.109-.318-.172l-.1-.052-.049-.026-.049-.026-.024-.013-.063-.034-.056-.031-.026-.014-.009-.005-.038-.021c-.172-.095-.35-.192-.529-.283-.108-.055-.221-.108-.321-.155l-.067-.031-.2-.1-.154-.073-.048-.023-.039-.019c-.178-.085-.345-.165-.512-.239l-.063-.03c-.118-.051-.242-.1-.325-.131l-.075-.03c-.049-.019-.1-.039-.149-.059l-.047-.019-.163-.067c-.18-.075-.372-.154-.554-.221-.091-.034-.185-.066-.275-.1l-.073-.025-.052-.017-.069-.023-.162-.055-.154-.053c-.21-.073-.415-.144-.617-.206-.147-.045-.3-.087-.437-.123l-.025-.007-.191-.052-.165-.046-.021-.006c-.183-.052-.388-.11-.592-.159-.141-.034-.286-.065-.427-.094l-.02,0-.223-.047-.168-.037-.029-.006-.01,0c-.189-.041-.385-.084-.578-.118-.156-.028-.317-.051-.472-.074l-.031,0-.048-.007-.049-.007h-.011l-.088-.013-.092-.014-.045-.007-.045-.007c-.184-.029-.393-.062-.6-.086-.163-.019-.327-.033-.5-.047l-.036,0h-.007l-.175-.014-.146-.014-.021,0-.016,0c-.2-.019-.4-.038-.6-.049-.172-.01-.349-.014-.516-.018l-.225-.005-.241-.009-.045,0-.046,0c-.112,0-.228-.008-.342-.008h-.2ZM28.3,19.254l-.178.064c-.318.113-.6.216-.889.33a32.519,32.519,0,0,0-3.03,1.39,33.439,33.439,0,0,0-4.235,2.632A34.837,34.837,0,0,0,16.151,26.9c-.787.771-1.554,1.6-2.279,2.46a36.139,36.139,0,0,0-2.985,4.1,36.948,36.948,0,0,0-1.909,3.482c-.348.72-.674,1.455-.971,2.186A37.422,37.422,0,0,0,6.7,42.92c-.282.995-.533,2.056-.744,3.155l-.011.057c-.029.149-.062.318-.092.49a38.646,38.646,0,0,0-.591,7.014c0,.093,0,.19.008.269s.006.145.008.218l0,.185v.026c.009.379.018.768.039,1.149.009.171.024.342.04.517l.009.1c.006.064.011.125.016.186.006.08.012.161.017.242.016.228.036.51.064.777.019.192.045.381.074.59l.015.111c.009.068.018.132.026.195.013.1.026.206.038.31v.005c.022.184.047.387.077.582.032.217.072.437.113.662l0,.007c.017.09.033.181.049.272s.034.2.05.293l.013.075c.026.151.052.306.082.456.049.239.1.474.164.735l0,.01.025.109.025.109c.022.094.042.189.063.284l.006.027c.033.151.067.308.1.459.055.218.117.439.178.653l.006.023.078.279c.022.079.043.158.065.239l.016.059c.04.148.081.3.125.448.075.25.158.5.236.726l.006.019.034.1,0,.012.033.1,0,.013c.027.083.053.163.08.246.039.125.091.288.147.445.085.241.179.484.269.718l.009.024c.022.057.044.114.066.171l0,.006.019.049c.031.082.062.165.093.247.05.134.1.275.158.411.108.267.23.541.328.762l.083.186.048.112.048.112c.048.115.113.266.181.414.1.227.217.453.326.672l.026.053,0,.011c.034.068.067.132.1.2s.073.149.11.227l.013.028c.057.118.116.239.176.355.126.243.26.483.391.714l.016.029.1.172c.028.05.056.1.083.151l.041.076c.069.127.131.242.2.355.133.229.271.452.424.7l.115.185,0,.006c.042.068.085.138.128.21.059.1.137.228.218.353.147.227.3.453.454.672l.017.025.109.158.028.041.1.143.012.018c.076.114.155.232.237.346.145.2.3.4.446.6l.027.035.005.007.066.087.066.087.132.177c.085.115.175.238.271.358.171.218.351.432.525.64l.011.013.107.128.066.081.066.081.044.053c.081.1.164.2.25.3.177.205.369.413.523.58l.076.083.076.083.159.175.033.036.029.032c.075.083.153.169.231.252.181.188.366.372.546.55l.152.15.063.063.127.127c.108.11.2.206.294.292.183.173.373.344.568.518l.149.134c.059.053.117.106.175.16l0,0,.017.016c.1.1.212.195.32.289.194.167.392.329.579.481l.155.126.128.106.047.04c.115.1.245.2.375.307.176.138.36.275.539.406l.046.034.037.027.134.1.163.122c.114.086.264.2.413.305.181.129.368.253.549.373l.063.042.16.106.178.12.047.032.071.048c.1.069.206.139.31.206.175.112.356.22.531.324l.065.039.091.054.091.054.152.092.069.042c.137.083.279.169.423.251.216.124.441.243.639.347l.145.076.115.062.082.045c.149.081.314.172.482.256.193.1.391.19.577.276l.012.005.1.048.1.049.215.1c.148.071.32.153.492.229.195.087.4.169.591.248l.067.027.149.06.128.053.076.032c.179.076.355.149.529.215.21.08.424.155.643.231l.169.059.071.026.071.026.005,0,.053.019c.061.022.12.044.18.064l.006,0,.133.046c-.044-.018-.09-.036-.146-.054A37.4,37.4,0,0,1,23.3,82.2,45.32,45.32,0,0,1,13.28,53.571a45.271,45.271,0,0,1,9.635-28.877A37.636,37.636,0,0,1,28.3,19.254ZM99.075,40.164a13.359,13.359,0,0,0-2.679.27,12.85,12.85,0,0,0-4.146,1.633,13.338,13.338,0,0,0-4.964,5.268,13.272,13.272,0,0,0,0,12.29A13.5,13.5,0,0,0,95.12,66.2c.415.129.845.24,1.275.328a13.317,13.317,0,1,0,2.679-26.36ZM50.991,43.823a9.657,9.657,0,1,0,7.438,15.8H81.581a18.252,18.252,0,0,1,0-12.29H58.429A9.613,9.613,0,0,0,50.991,43.823Z" transform="translate(201.56 197.548)" fill="#171628"/>
    </g>
  </g>
</svg>
