<?xml version="1.0" encoding="utf-8"?>
<!-- Generator: Adobe Illustrator 22.1.0, SVG Export Plug-In . SVG Version: 6.00 Build 0)  -->
<svg version="1.1" xmlns="http://www.w3.org/2000/svg" xmlns:xlink="http://www.w3.org/1999/xlink" x="0px" y="0px"
	 viewBox="0 0 400 150" style="enable-background:new 0 0 400 150;" xml:space="preserve">
<style type="text/css">
	.st0{fill:#56E5E5;}
	.st1{fill:#E6E6E6;}
	.st2{fill:#FCC600;}
	.st3{clip-path:url(#SVGID_2_);fill:#FCB415;}
	.st4{fill:#FCB415;}
	.st5{fill:#FFFFFF;}
	.st6{fill:none;stroke:#171628;stroke-width:1.6525;stroke-linecap:round;stroke-miterlimit:10;}
	.st7{fill:none;}
	.st8{fill:#171628;}
	.st9{fill:#494949;}
	.st10{fill:#353535;}
	.st11{fill:none;stroke:#171628;stroke-width:1.497;stroke-linecap:round;stroke-linejoin:round;stroke-miterlimit:10;}
	.st12{fill:none;stroke:#171628;stroke-width:1.6525;stroke-linecap:round;stroke-linejoin:round;stroke-miterlimit:10;}
	.st13{fill:#00BED5;}
	.st14{clip-path:url(#SVGID_4_);fill:#FFFFFF;}
	.st15{fill:#353535;stroke:#171628;stroke-width:2.185;stroke-linecap:round;stroke-linejoin:round;stroke-miterlimit:10;}
	.st16{fill:#353535;stroke:#171628;stroke-width:1.8777;stroke-linecap:round;stroke-linejoin:round;stroke-miterlimit:10;}
	.st17{fill:none;stroke:#171628;stroke-width:6;stroke-linecap:round;stroke-linejoin:round;stroke-miterlimit:10;}
	.st18{fill:none;stroke:#171628;stroke-width:6;stroke-linecap:round;stroke-miterlimit:10;}
	.st19{fill:none;stroke:#171628;stroke-width:6;stroke-miterlimit:10;}
	.st20{fill:none;stroke:#171628;stroke-width:3.5869;stroke-linecap:round;stroke-linejoin:round;stroke-miterlimit:10;}
	.st21{fill:none;stroke:#171628;stroke-width:3.5869;stroke-linecap:round;stroke-miterlimit:10;}
	.st22{opacity:0.7;}
</style>
<g id="BG">
</g>
<g id="Offset_color">
</g>
<g id="Content">
	<g>
		<path d="M117.6,86.9c-4.4-4.3-6.6-10.5-6.6-18.5V37.7h13v30.2c0,9.8,4,14.7,12,14.7c3.9,0,6.9-1.2,8.9-3.6
			c2.1-2.4,3.1-6.1,3.1-11.1V37.7h13v30.6c0,8-2.2,14.2-6.6,18.5c-4.4,4.3-10.5,6.5-18.4,6.5S122,91.2,117.6,86.9z"/>
		<path d="M216,82.7v10h-42v-55h41v10h-29v12h25v10h-25v13H216z"/>
		<path d="M278,37.7l-23.8,55h-12.6l-23.7-55h13.8L248.4,77l17-39.3H278z"/>
		<path d="M292.9,89.9c-4.6-2.4-8.1-5.8-10.7-10.1c-2.6-4.3-3.9-9.1-3.9-14.5c0-5.4,1.3-10.2,3.9-14.5c2.6-4.3,6.1-7.7,10.7-10.1
			c4.6-2.4,9.7-3.7,15.4-3.7c5.7,0,10.8,1.2,15.3,3.7c4.5,2.5,8.1,5.8,10.7,10.1c2.6,4.3,3.9,9.1,3.9,14.5c0,5.4-1.3,10.2-3.9,14.5
			c-2.6,4.3-6.2,7.7-10.7,10.1c-4.5,2.5-9.6,3.7-15.3,3.7C302.6,93.6,297.4,92.4,292.9,89.9z M317,80.6c2.6-1.5,4.7-3.6,6.1-6.2
			c1.5-2.7,2.2-5.7,2.2-9.1c0-3.4-0.7-6.4-2.2-9.1c-1.5-2.7-3.5-4.7-6.1-6.2c-2.6-1.5-5.5-2.2-8.8-2.2c-3.2,0-6.1,0.7-8.8,2.2
			c-2.6,1.5-4.7,3.6-6.1,6.2c-1.5,2.7-2.2,5.7-2.2,9.1c0,3.4,0.7,6.4,2.2,9.1c1.5,2.7,3.5,4.7,6.1,6.2c2.6,1.5,5.5,2.2,8.8,2.2
			C311.5,82.8,314.4,82.1,317,80.6z"/>
		<g>
			<path d="M100,86.6l-14-17c0,0,0-32.1,0-32h14V86.6z"/>
			<path d="M49,92.6h14v-32l-14-16C49,51.8,49,92.3,49,92.6z"/>
			<polygon class="st2" points="100,86.2 59,37.6 49,37.6 49,44.6 90,92.6 100,92.6 			"/>
		</g>
		<rect x="278" y="105.7" class="st2" width="60" height="8"/>
	</g>
</g>
<g id="Grid">
</g>
</svg>
